<svg width="228" height="30" viewBox="0 0 228.00 30.00" xmlns="http://www.w3.org/2000/svg"><path d="M0.82 29.18 0.82 1.76 21.68 1.76 21.68 2.70 22.62 2.70 22.62 3.63 23.55 3.63 23.55 4.57 24.49 4.57 24.49 5.51 25.43 5.51 25.43 6.45 26.37 6.45 26.37 7.38 27.30 7.38 27.30 8.32 28.24 8.32 28.24 8.55 27.30 8.55 27.30 9.49 26.37 9.49 26.37 10.43 25.43 10.43 25.43 11.37 24.49 11.37 24.49 12.30 23.55 12.30 23.55 13.24 22.62 13.24 22.62 14.18 21.68 14.18 21.68 16.76 22.62 16.76 22.62 17.70 23.55 17.70 23.55 18.63 24.49 18.63 24.49 19.57 25.43 19.57 25.43 20.51 26.37 20.51 26.37 21.45 27.30 21.45 27.30 22.38 28.24 22.38 28.24 22.62 27.30 22.62 27.30 23.55 26.37 23.55 26.37 24.49 25.43 24.49 25.43 25.43 24.49 25.43 24.49 26.37 23.55 26.37 23.55 27.30 22.62 27.30 22.62 28.24 21.68 28.24 21.68 29.18ZM19.57 24.26 19.57 17.93 9.49 17.93 9.49 24.26ZM19.57 13.01 19.57 6.68 9.49 6.68 9.49 13.01Z" fill="#62E9F2" fill-rule="evenodd"/><path d="M43.20 29.18 43.20 15.12 40.38 15.12 40.38 14.18 39.45 14.18 39.45 13.24 38.51 13.24 38.51 12.30 37.57 12.30 37.57 11.37 36.63 11.37 36.63 10.43 35.70 10.43 35.70 9.49 34.76 9.49 34.76 8.55 33.82 8.55 33.82 1.76 42.49 1.76 42.49 13.01 52.57 13.01 52.57 1.76 61.24 1.76 61.24 8.55 60.30 8.55 60.30 9.49 59.37 9.49 59.37 10.43 58.43 10.43 58.43 11.37 57.49 11.37 57.49 12.30 56.55 12.30 56.55 13.24 55.62 13.24 55.62 14.18 54.68 14.18 54.68 15.12 51.87 15.12 51.87 29.18Z" fill="#62E9F2" fill-rule="evenodd"/><path d="M76.20 29.18 76.20 6.68 66.82 6.68 66.82 1.76 94.24 1.76 94.24 6.68 84.87 6.68 84.87 29.18Z" fill="#62E9F2" fill-rule="evenodd"/><path d="M99.82 29.18 99.82 1.76 127.24 1.76 127.24 6.68 108.49 6.68 108.49 13.01 120.68 13.01 120.68 17.93 108.49 17.93 108.49 24.26 127.24 24.26 127.24 29.18Z" fill="#62E9F2" fill-rule="evenodd"/><path d="M132.82 29.18 132.82 1.76 153.68 1.76 153.68 2.70 154.62 2.70 154.62 3.63 155.55 3.63 155.55 4.57 156.49 4.57 156.49 5.51 157.43 5.51 157.43 6.45 158.37 6.45 158.37 7.38 159.30 7.38 159.30 8.32 160.24 8.32 160.24 8.55 159.30 8.55 159.30 9.49 158.37 9.49 158.37 10.43 157.43 10.43 157.43 11.37 156.49 11.37 156.49 12.30 155.55 12.30 155.55 13.24 154.62 13.24 154.62 14.18 153.68 14.18 153.68 16.76 154.62 16.76 154.62 17.70 155.55 17.70 155.55 18.63 156.49 18.63 156.49 19.57 157.43 19.57 157.43 20.51 158.37 20.51 158.37 21.45 159.30 21.45 159.30 22.38 160.24 22.38 160.24 22.62 159.30 22.62 159.30 23.55 158.37 23.55 158.37 24.49 157.43 24.49 157.43 25.43 156.49 25.43 156.49 26.37 155.55 26.37 155.55 27.30 154.62 27.30 154.62 28.24 153.68 28.24 153.68 29.18ZM151.57 24.26 151.57 17.93 141.49 17.93 141.49 24.26ZM151.57 13.01 151.57 6.68 141.49 6.68 141.49 13.01Z" fill="#62E9F2" fill-rule="evenodd"/><path d="M172.38 29.18 172.38 28.24 171.45 28.24 171.45 27.30 170.51 27.30 170.51 26.37 169.57 26.37 169.57 25.43 168.63 25.43 168.63 24.49 167.70 24.49 167.70 23.55 166.76 23.55 166.76 22.62 165.82 22.62 165.82 8.32 166.76 8.32 166.76 7.38 167.70 7.38 167.70 6.45 168.63 6.45 168.63 5.51 169.57 5.51 169.57 4.57 170.51 4.57 170.51 3.63 171.45 3.63 171.45 2.70 172.38 2.70 172.38 1.76 186.68 1.76 186.68 2.70 187.62 2.70 187.62 3.63 188.55 3.63 188.55 4.57 189.49 4.57 189.49 5.51 190.43 5.51 190.43 6.45 191.37 6.45 191.37 7.38 192.30 7.38 192.30 8.32 193.24 8.32 193.24 22.62 192.30 22.62 192.30 23.55 191.37 23.55 191.37 24.49 190.43 24.49 190.43 25.43 189.49 25.43 189.49 26.37 188.55 26.37 188.55 27.30 187.62 27.30 187.62 28.24 186.68 28.24 186.68 29.18ZM184.57 24.26 184.57 6.68 174.49 6.68 174.49 24.26Z" fill="#62E9F2" fill-rule="evenodd"/><path d="M208.20 29.18 208.20 15.12 205.38 15.12 205.38 14.18 204.45 14.18 204.45 13.24 203.51 13.24 203.51 12.30 202.57 12.30 202.57 11.37 201.63 11.37 201.63 10.43 200.70 10.43 200.70 9.49 199.76 9.49 199.76 8.55 198.82 8.55 198.82 1.76 207.49 1.76 207.49 13.01 217.57 13.01 217.57 1.76 226.24 1.76 226.24 8.55 225.30 8.55 225.30 9.49 224.37 9.49 224.37 10.43 223.43 10.43 223.43 11.37 222.49 11.37 222.49 12.30 221.55 12.30 221.55 13.24 220.62 13.24 220.62 14.18 219.68 14.18 219.68 15.12 216.87 15.12 216.87 29.18Z" fill="#62E9F2" fill-rule="evenodd"/></svg>